<?xml version="1.0" encoding="utf-8"?>
<!-- Generator: Adobe Illustrator 23.0.5, SVG Export Plug-In . SVG Version: 6.00 Build 0)  -->
<svg version="1.1" id="Layer_1" xmlns="http://www.w3.org/2000/svg" xmlns:xlink="http://www.w3.org/1999/xlink" x="0px" y="0px"
	 viewBox="0 0 726.4 252" style="enable-background:new 0 0 726.4 252;" xml:space="preserve">
<style type="text/css">
	.st0{fill:#00A6CE;}
	.st1{fill:#005487;}
	.st2{fill:#64C7E3;}
	.st3{fill:#767879;}
	.st4{fill:#24272A;}
</style>
<g>
	<path class="st0" d="M179.9,73.9c-0.2-0.3-0.6-0.5-0.9-0.5h-62.7c-0.3,0-0.7,0.2-0.9,0.5l-9.5,16.5c-0.2,0.3,0,0.5,0.3,0.5h62.7
		c0.3,0,0.7,0.2,0.9,0.5l31.4,54.3c0.2,0.3,0.2,0.8,0,1l-31.4,54.3c-0.2,0.3-0.2,0.8,0,1l9.5,16.5c0.2,0.3,0.4,0.3,0.6,0l41.5-71.9
		c0.2-0.3,0.2-0.8,0-1L179.9,73.9"/>
	<path class="st1" d="M201.1,146.8c0.2-0.3,0.2-0.8,0-1l-31.4-54.3c-0.2-0.3-0.6-0.5-0.9-0.5h-19.1c-0.3,0-0.5,0.2-0.3,0.5
		l31.4,54.3c0.2,0.3,0.2,0.8,0,1l-31.4,54.3c-0.2,0.3-0.6,0.5-0.9,0.5H85.8c-0.3,0-0.6,0-0.6,0s-0.1,0.2-0.3,0.5l-9.5,16.5
		c-0.2,0.3,0,0.5,0.3,0.5h83c0.3,0,0.7-0.2,0.9-0.5L201.1,146.8"/>
	<path class="st2" d="M171.3,129.2c-0.2-0.3-0.3-0.5-0.3-0.5s-0.1,0.2-0.3,0.5l-31.4,54.3c-0.2,0.3-0.6,0.5-0.9,0.5H75.7
		c-0.3,0-0.7-0.2-0.9-0.5l-31.4-54.3c-0.2-0.3-0.6-0.5-0.9-0.5H23.4c-0.3,0-0.5,0.2-0.3,0.5l41.5,71.9c0.2,0.3,0.6,0.5,0.9,0.5h83
		c0.3,0,0.7-0.2,0.9-0.5l31.4-54.3c0.2-0.3,0.2-0.8,0-1L171.3,129.2"/>
	<path class="st0" d="M85.8,166.5c-0.3,0-0.7-0.2-0.9-0.5l-31.4-54.3c-0.2-0.3-0.2-0.8,0-1l31.4-54.3c0.2-0.3,0.3-0.5,0.3-0.5
		s-0.1-0.2-0.3-0.5l-9.5-16.5c-0.2-0.3-0.4-0.3-0.6,0l-41.5,71.9c-0.2,0.3-0.2,0.8,0,1l41.5,71.9c0.2,0.3,0.6,0.5,0.9,0.5h62.7
		c0.3,0,0.6,0,0.6,0s0.1-0.2,0.3-0.5l9.5-16.5c0.2-0.3,0-0.5-0.3-0.5H85.8"/>
	<path class="st1" d="M96,38.2c-0.3,0-0.7,0.2-0.9,0.5l-41.5,71.9c-0.2,0.3-0.2,0.8,0,1L84.9,166c0.2,0.3,0.6,0.5,0.9,0.5h19.1
		c0.3,0,0.5-0.2,0.3-0.5l-31.3-54.3c-0.2-0.3-0.2-0.8,0-1l31.4-54.3c0.2-0.3,0.6-0.5,0.9-0.5h62.7c0.3,0,0.7-0.2,0.9-0.5l9.5-16.5
		c0.2-0.3,0-0.5-0.3-0.5H96"/>
	<path class="st2" d="M231.2,128.7c0.3,0,0.5-0.2,0.3-0.5L190,56.3c-0.2-0.3-0.6-0.5-0.9-0.5h-83c-0.3,0-0.7,0.2-0.9,0.5l-31.4,54.3
		c-0.2,0.3-0.2,0.8,0,1l9.5,16.5c0.2,0.3,0.4,0.3,0.6,0l31.4-54.3c0.2-0.3,0.6-0.5,0.9-0.5H179c0.3,0,0.7,0.2,0.9,0.5l31.4,54.3
		c0.2,0.3,0.6,0.5,0.9,0.5H231.2"/>
	<polyline class="st3" points="258.1,154.6 261.1,154.6 269.8,168.7 278.5,154.6 281.5,154.6 281.5,180.8 278.4,180.8 278.4,160.2 
		270.1,173.7 269.5,173.7 261.2,160.3 261.2,180.8 258.1,180.8 258.1,154.6 	"/>
	<path class="st3" d="M302.1,180.8h-2.5l-0.4-3.4c-1,2.1-3,3.7-6.2,3.7c-3.3,0-6.5-1.6-6.5-6.1c0-4.5,3.2-6.2,8.7-6.2h3.9v-1.9
		c0-2.7-1.9-3.6-5.1-3.6c-2.3,0-4.2,0.4-5.5,0.9l-0.5-2.8c1.6-0.5,3.6-0.9,6-0.9c4.6,0,8,1.7,8,6.6V180.8 M299.1,171.2h-3.9
		c-3.7,0-5.7,0.9-5.7,3.7c0,2.7,1.8,3.6,4.1,3.6c3.6,0,5.5-2.3,5.5-5.9V171.2z"/>
	<path class="st3" d="M307.4,160.8h2.6l0.4,3.2c1.2-2.4,3.7-3.6,6.5-3.6c3.9,0,7.1,1.7,7.1,7.4v12.9h-3v-12.5c0-3.8-1.8-4.9-4.8-4.9
		c-3.2,0-5.7,1.6-5.7,6.9v10.5h-3V160.8"/>
	<path class="st3" d="M343.8,180.8h-2.5l-0.4-3.4c-1,2.1-3,3.7-6.2,3.7c-3.3,0-6.5-1.6-6.5-6.1c0-4.5,3.2-6.2,8.7-6.2h3.9v-1.9
		c0-2.7-1.9-3.6-5.1-3.6c-2.3,0-4.2,0.4-5.5,0.9l-0.5-2.8c1.6-0.5,3.6-0.9,6-0.9c4.6,0,8,1.7,8,6.6V180.8 M340.9,171.2H337
		c-3.7,0-5.7,0.9-5.7,3.7c0,2.7,1.8,3.6,4.1,3.6c3.6,0,5.5-2.3,5.5-5.9V171.2z"/>
	<path class="st3" d="M366,180.2c0,6.9-3.7,9.4-9.3,9.4c-2.6,0-4.9-0.5-7-1.4l0.5-2.8c1.9,0.9,4.2,1.4,6.5,1.4
		c3.9,0,6.3-1.3,6.3-6.5v-2.8c-0.9,2.3-3,3.7-6.4,3.7c-6,0-8.2-4.6-8.2-10.1c0-7.5,3.4-10.5,8.3-10.5c2.9,0,5.2,1,6.3,3.7l0.4-3.4
		h2.5V180.2 M357.2,178.2c4.9,0,5.8-3.4,5.8-7.4c0-5.1-1.5-7.5-5.8-7.5c-4.1,0-5.7,2.4-5.7,7.5C351.5,174.9,352.3,178.2,357.2,178.2
		z"/>
	<path class="st3" d="M387.5,172h-13.6v0.2c0,4.2,2.4,6.1,6.6,6.1c2.3,0,4.8-0.6,6.3-1.4l0.5,2.9c-1.9,0.9-4.3,1.4-6.8,1.4
		c-6.4,0-9.6-3.2-9.6-10.3c0-5.8,2.1-10.4,8.7-10.4c5.3,0,8.4,2.9,8.4,8.7C387.8,170,387.7,171.1,387.5,172 M373.9,169.4h11.1v-0.2
		c0-4.3-2.2-6-5.6-6c-3.4,0-5.5,1.7-5.5,6V169.4z"/>
	<path class="st3" d="M392.8,160.8h2.6l0.4,3.2c1.1-2.5,3.3-3.6,6-3.6c2.3,0,4.4,1.2,5.5,3.9c1.4-2.9,3.6-3.9,6.5-3.9
		c3.6,0,6.6,2,6.6,7.5v12.8h-3v-12.3c0-3.9-1.7-5.1-4.3-5.1c-2.9,0-4.9,1.3-4.9,5.3v12.1h-3v-12.3c0-3.8-1.7-5.1-4.1-5.1
		c-3,0-5.1,1.8-5.1,6.9v10.6h-3V160.8"/>
	<path class="st3" d="M441.4,172h-13.6v0.2c0,4.2,2.4,6.1,6.6,6.1c2.3,0,4.8-0.6,6.3-1.4l0.5,2.9c-1.9,0.9-4.3,1.4-6.7,1.4
		c-6.4,0-9.6-3.2-9.6-10.3c0-5.8,2.1-10.4,8.7-10.4c5.3,0,8.4,2.9,8.4,8.7C441.7,170,441.6,171.1,441.4,172 M427.7,169.4h11.1v-0.2
		c0-4.3-2.2-6-5.6-6c-3.4,0-5.5,1.7-5.5,6V169.4z"/>
	<path class="st3" d="M446.7,160.8h2.6l0.4,3.2c1.2-2.4,3.7-3.6,6.5-3.6c3.9,0,7.1,1.7,7.1,7.4v12.9h-3v-12.5c0-3.8-1.8-4.9-4.8-4.9
		c-3.2,0-5.7,1.6-5.7,6.9v10.5h-3V160.8"/>
	<path class="st3" d="M468.2,155.4h3v5.4h8v2.9h-8v10.1c0,3.4,1.5,4.5,3.9,4.5c1.7,0,3.4-0.4,4.6-1l0.5,2.9c-1.3,0.6-3.1,1-5,1
		c-4,0-6.9-1.9-6.9-7.3V155.4"/>
	<path class="st3" d="M506.2,178.2c3.1,0,5.7-1,7-1.9l0.5,2.9c-1.6,1-3.7,1.9-7.3,1.9c-7.8,0-11.1-4.1-11.1-13.3
		c0-8.9,3-13.7,10.9-13.7c3.5,0,5.4,1,7.2,1.9l-0.5,3c-1.8-1.1-4-1.9-6.8-1.9c-5.8,0-7.6,3.5-7.6,10.6
		C498.4,174.3,500,178.2,506.2,178.2"/>
	<path class="st3" d="M517.4,170.8c0-6.1,2.5-10.3,8.8-10.3c6.4,0,8.8,4.1,8.8,10.3c0,6.1-2.5,10.3-8.8,10.3
		C519.8,181.1,517.4,177,517.4,170.8 M526.3,163.3c-4.6,0-5.8,2.9-5.8,7.5c0,4.6,1.2,7.5,5.8,7.5c4.6,0,5.8-2.9,5.8-7.5
		C532,166.2,530.9,163.3,526.3,163.3z"/>
	<path class="st3" d="M540,160.8h2.6l0.4,3.2c1.2-2.4,3.7-3.6,6.5-3.6c3.9,0,7.1,1.7,7.1,7.4v12.9h-3v-12.5c0-3.8-1.8-4.9-4.8-4.9
		c-3.2,0-5.7,1.6-5.7,6.9v10.5h-3V160.8"/>
	<path class="st3" d="M561.6,177.2c1.6,0.6,4.3,1.1,6.5,1.1c2.7,0,4.9-0.8,4.9-2.9c0-4.8-11.6-1.5-11.6-9.1c0-4.3,3.6-5.8,7.7-5.8
		c2.2,0,4.4,0.5,6,1.2l-0.5,2.9c-1.5-0.7-3.9-1.3-5.8-1.3c-2.4,0-4.3,0.8-4.3,2.8c0,4.6,11.6,1.6,11.6,9c0,4.3-3.5,6-8.3,6
		c-2.4,0-4.8-0.5-6.6-1.1L561.6,177.2"/>
	<path class="st3" d="M597.2,180.8h-2.5l-0.4-3.2c-1.2,2.4-3.7,3.6-6.5,3.6c-3.9,0-7.1-1.7-7.1-7.4v-12.9h3v12.5
		c0,3.8,1.8,4.9,4.8,4.9c3.2,0,5.7-1.6,5.7-6.9v-10.5h3V180.8"/>
	<path class="st3" d="M602.7,152.5h3v22.2c0,2.7,0.8,3.4,2.2,3.4c0.7,0,1.3-0.1,1.8-0.3l0.4,2.7c-0.5,0.2-1.4,0.4-2.4,0.4
		c-2.9,0-5-1.5-5-5.8V152.5"/>
	<path class="st3" d="M613.1,155.4h3v5.4h8v2.9h-8v10.1c0,3.4,1.5,4.5,3.9,4.5c1.7,0,3.4-0.4,4.6-1l0.5,2.9c-1.3,0.6-3.1,1-5,1
		c-4,0-6.9-1.9-6.9-7.3V155.4"/>
	<path class="st3" d="M644,180.8h-2.5l-0.4-3.4c-1,2.1-3,3.7-6.2,3.7c-3.3,0-6.5-1.6-6.5-6.1c0-4.5,3.2-6.2,8.7-6.2h3.9v-1.9
		c0-2.7-1.9-3.6-5.1-3.6c-2.3,0-4.2,0.4-5.5,0.9l-0.5-2.8c1.6-0.5,3.6-0.9,6-0.9c4.6,0,8,1.7,8,6.6V180.8 M641,171.2h-3.9
		c-3.7,0-5.7,0.9-5.7,3.7c0,2.7,1.8,3.6,4.1,3.6c3.6,0,5.5-2.3,5.5-5.9V171.2z"/>
	<path class="st3" d="M649.4,160.8h2.6l0.4,3.2c1.2-2.4,3.7-3.6,6.5-3.6c3.9,0,7.1,1.7,7.1,7.4v12.9h-3v-12.5c0-3.8-1.8-4.9-4.8-4.9
		c-3.2,0-5.7,1.6-5.7,6.9v10.5h-3V160.8"/>
	<path class="st3" d="M679.9,160.5c2.2,0,3.9,0.5,5.2,1l-0.5,2.9c-1-0.5-2.5-1-4.6-1c-5,0-6.4,3-6.4,7.4c0,5.3,2,7.5,6.7,7.5
		c1.6,0,3.3-0.2,4.8-1l0.5,2.9c-1.6,0.6-3.5,1-5.5,1c-6,0-9.5-3.4-9.5-10.2C670.5,164.7,673.3,160.5,679.9,160.5"/>
	<path class="st3" d="M697.9,176.9l6.2-16.1h3.1l-7.7,20c-1.7,4.4-4.1,9-9.5,8.8l-0.7-2.9c3.3,0.2,5.7-2.4,7.1-5.9l-8.8-20h3.2
		L697.9,176.9"/>
	<path class="st4" d="M577.4,88.4l1-5c0,0-4.6-3.4-13.2-3.4c0,0-8.6-0.6-14.1,4.8c-4,3.9-5.2,9.8-5.4,15.2c-0.1,1.9-0.1,3.8,0,5.7
		c0.1,5.1,0.9,10.8,4.4,15.1c2.8,3.6,7.2,5.3,11.7,5.8c1.2,0.1,2.5,0.2,3.8,0.2c0,0,8.8-0.1,13.2-3.4v-21.6h-15.6v4.8h10.4v13.5
		c0,0-3,1.7-8.2,1.6c-2.7,0-5.9-0.5-8.3-1.9c-4.1-2.5-5.4-7.7-5.8-12.2c-0.3-3.2-0.3-6.5,0.1-9.7c0.5-3.6,1.9-8.6,6-11
		c0,0,2.6-1.8,8.1-1.7C565.6,85.2,572.5,85.5,577.4,88.4"/>
	<path class="st4" d="M615.5,110.8c0.8-3,1.3-11.9-3.3-16.1c-4.5-4.3-10.8-3.9-10.8-3.9c-12.5,0-14.7,10.2-15,15.2
		c-0.1,1.6-0.1,3.2-0.1,3.4c0,0.8,0,4.1,1,7.5c0.9,3.2,2.9,6,5.9,7.7c3,1.7,6.5,2.3,10,2.3c7.4,0,11.6-2.5,11.6-2.5l-0.7-5.1
		c-4.7,2.7-10.9,2.5-10.9,2.5c-11.3,0.1-11.4-9.1-11.4-9.1v-1.8H615.5 M591.9,105.7c0-11,9.6-10.1,9.6-10.1c10.1,0,9.6,10,9.6,10
		v0.7h-19.1V105.7z"/>
	<path class="st4" d="M646.2,93.8c-3.7-3.2-9.7-3-9.7-3c-6.8,0-11.6,1.7-11.6,1.7l1,4.7c5-2,10.6-1.6,10.6-1.6
		c8.2,0.6,7.6,5.8,7.6,5.8v4h-6c-6.7-0.1-9.8,1.3-9.8,1.3c-6.4,2.6-5.9,9.2-5.9,9.2c0,10.8,10.4,11,13.2,11c0.2,0,0.9,0,0.9,0
		c9.3,0,12.8-2.2,12.8-2.2v-24.4C649.2,96.4,646.2,93.8,646.2,93.8 M644.1,121.1c-1.5,0.8-7.9,1.1-7.9,1.1c-8.9,0.3-8.6-6-8.6-6
		v-0.8c0-6.4,9.9-5.9,9.9-5.9h6.6V121.1z"/>
	<path class="st4" d="M658.1,126.1h5.2V96.8c0,0,5.4-2,11.6,0l1-5.1c0,0-9.3-2.4-17.7,1.2V126.1"/>
	<path class="st4" d="M703.5,98.2l0.8-5.3c0,0-4.6-2.1-10.5-2.1c0,0-13.2-0.4-13.2,9.5c0,0-0.4,6.3,5.1,8.7c0,0,3.8,1.8,8.7,2.7
		c4.2,0.7,6.3,2.6,6.3,5c0,2.4-2.8,5.1-8.2,5c0,0-6.7-0.1-11.7-1.9l-0.7,5.1c0,0,4.4,1.8,12,1.8c0,0,13.9,0.6,13.9-9.9
		c0,0,0.1-2.2-0.7-4.3c-0.3-0.8-0.9-1.6-1.5-2.3c-1.7-1.7-4.6-3-7.2-3.6c-4.7-1-10.4-1.9-10.5-5.9c0-4.1,4.4-4.8,7.6-4.9
		C696.9,95.8,701.8,97.1,703.5,98.2"/>
	<path class="st4" d="M434,110.8c0.8-3,1.3-11.8-3.3-16.1c-4.5-4.3-10.7-3.9-10.7-3.9c-12.5,0-14.6,10.2-15,15.2
		c-0.1,1.6-0.1,3.2-0.1,3.4c0,0.8,0,4.1,1,7.5c0.9,3.2,2.9,6,5.9,7.6c3,1.7,6.5,2.3,9.9,2.3c7.4,0,11.6-2.5,11.6-2.5l-0.7-5.1
		c-4.7,2.7-10.9,2.5-10.9,2.5c-11.3,0.1-11.4-9.1-11.4-9.1v-1.8H434 M410.4,105.7c0-11,9.6-10.1,9.6-10.1c10.1,0,9.6,10,9.6,10v0.7
		h-19.1V105.7z"/>
	<path class="st4" d="M366.5,93.8c-3.7-3.2-9.7-3-9.7-3c-6.8,0-11.6,1.7-11.6,1.7l1,4.7c5-2,10.6-1.6,10.6-1.6
		c8.2,0.6,7.6,5.7,7.6,5.7v4h-6c-6.7-0.1-9.8,1.3-9.8,1.3c-6.4,2.6-5.9,9.2-5.9,9.2c0,10.8,10.4,11,13.2,11c0.2,0,0.9,0,0.9,0
		c9.3,0,12.8-2.2,12.8-2.2v-24.4C369.5,96.4,366.5,93.8,366.5,93.8 M364.3,121.1c-1.5,0.8-7.9,1.1-7.9,1.1c-8.9,0.3-8.6-6-8.6-6
		v-0.8c0-6.4,9.9-5.8,9.9-5.8h6.6V121.1z"/>
	<path class="st4" d="M322.5,126h5.2V96.8c0,0,5.4-2,11.6,0l1-5.1c0,0-9.3-2.3-17.7,1.2V126"/>
	<path class="st4" d="M283.8,88.9l1.9-5.2c0,0-4.3-3.7-12.9-3.7c0,0-14.6-0.8-15.3,11.8c0,0-0.6,7.2,6,10.8c0,0,3.4,1.8,7.8,3.3
		c4.4,1.5,9,3,10.1,6.3c1,3.3-0.8,5.9-2.1,6.9c0,0-2.9,2.4-8.5,2.3c-5.6-0.1-9-1.8-12.3-3.5l-1.6,5c0,0,4.1,3.8,13.9,3.8
		c0,0,16.5,0.5,16.5-12.9c0,0,0.1-3.9-2-6.6c-1.6-2-4.3-4.2-8.7-5.4c0,0-2-0.6-4.8-1.6c-4.5-1.5-8.8-3.8-8.7-8.2
		c0,0-0.6-6.6,9.7-6.6C272.8,85.4,278.8,85.2,283.8,88.9"/>
	<path class="st4" d="M294.1,115.5V82.1h5.2v33.3c0,0,0.1,6.2,6.8,6.2c0,0,4.7,0,7.7-1.9l0.8,5.1c0,0-2.8,1.8-8.5,1.8
		C306,126.7,294.1,127.5,294.1,115.5"/>
	<rect x="294.8" y="91.3" class="st4" width="18.3" height="5.2"/>
	<path class="st4" d="M378.1,115.5V82.1h5.2v33.3c0,0,0.1,6.2,6.8,6.2c0,0,4.7,0,7.7-1.9l0.8,5.1c0,0-2.8,1.8-8.5,1.8
		C390.1,126.7,378.1,127.5,378.1,115.5"/>
	<rect x="378.9" y="91.3" class="st4" width="18.3" height="5.2"/>
	<rect x="480.8" y="91.7" class="st4" width="5.2" height="34.4"/>
	<path class="st4" d="M465.2,97c-3.1-1.1-6.9-1-6.9-1c-11.9-0.1-11.3,9.4-11.3,12.9c0,8.7,3.3,13.1,11,13.1c5.1,0,7.9-1.8,7.9-1.8v5
		c-1.5,1.2-7.3,1.7-8,1.7c-0.7,0-7,0.1-11.6-4c-5-4.4-4.5-14.3-4.5-14.3c0-14.8,8.9-17.5,16.9-17.5c8.3,0,11.8,2,11.8,2v35.6
		c0,0,1.4,12.8-15,12.8c-6.7,0-10.9-1.9-11.7-2.5l0.7-5c0,0,5.3,2.5,11.1,2.5c5.8,0,9.7-2.5,9.7-6.8C465.2,125.5,465.2,97,465.2,97"
		/>
	<path class="st4" d="M521.1,125.1c-3.3,1.7-8.5,1.7-9.8,1.7c-0.7,0-7,0.1-11.6-4c-5-4.4-4.5-14.3-4.5-14.3
		C495.1,93.7,504,91,512,91c5.1,0,8.5,1.8,8.5,1.8l-0.9,5c-3.8-1.9-8-1.8-8-1.8c-11.9-0.1-11.3,9.8-11.3,12.9
		c0,8.7,3.3,13.1,11,13.1c5.1,0,8.8-1.7,8.8-1.7L521.1,125.1"/>
	<path class="st4" d="M486.8,83.4c0,1.9-1.5,3.4-3.4,3.4c-1.9,0-3.4-1.5-3.4-3.4c0-1.9,1.5-3.4,3.4-3.4
		C485.3,80,486.8,81.5,486.8,83.4"/>
</g>
</svg>
